<svg width="64" height="50" viewBox="0 0 64 50" fill="none" xmlns="http://www.w3.org/2000/svg">
<g clip-path="url(#clip0_2376_22)">
<path opacity="0.0946098" d="M63.615 28.9912L54.9087 11.8407C54.3842 10.7885 53.3003 10.0871 52.1115 10.0169L32.9506 8.9998C31.7618 8.92965 30.643 9.52589 29.9786 10.5079L19.5241 26.6414C18.8597 27.6585 18.8248 28.9211 19.3492 29.9733L28.0555 47.1238C28.58 48.176 29.6639 48.8775 30.8527 48.9476L50.0136 49.9647C51.2024 50.0349 52.3213 49.4386 52.9856 48.4566L63.4402 32.3231C64.1045 31.3411 64.1744 30.0785 63.615 28.9912Z" fill="url(#paint0_linear_2376_22)"/>
</g>
<g clip-path="url(#clip1_2376_22)">
<path opacity="0.0946098" d="M22.8032 10.2394L18.3533 1.45499C18.0852 0.916065 17.5312 0.556784 16.9236 0.520856L7.13031 -0.000102464C6.5227 -0.0360306 5.95082 0.269359 5.61128 0.772353L0.26784 9.03582C-0.071709 9.55678 -0.08958 10.2035 0.178485 10.7424L4.62837 19.5268C4.89643 20.0658 5.45044 20.425 6.05805 20.461L15.8514 20.9819C16.459 21.0179 17.0309 20.7125 17.3704 20.2095L22.7138 11.946C23.0534 11.443 23.0891 10.7963 22.8032 10.2394Z" fill="url(#paint1_linear_2376_22)"/>
</g>
<defs>
<linearGradient id="paint0_linear_2376_22" x1="31.2789" y1="9.3633" x2="51.8121" y2="49.5815" gradientUnits="userSpaceOnUse">
<stop stop-color="#D4145A"/>
<stop offset="0.489583" stop-color="#832275"/>
<stop offset="1" stop-color="#2E3192"/>
</linearGradient>
<linearGradient id="paint1_linear_2376_22" x1="6.27586" y1="0.186083" x2="16.8059" y2="20.7676" gradientUnits="userSpaceOnUse">
<stop stop-color="#D4145A"/>
<stop offset="0.489583" stop-color="#832275"/>
<stop offset="1" stop-color="#2E3192"/>
</linearGradient>
<clipPath id="clip0_2376_22">
<rect width="45" height="41" fill="white" transform="translate(19 9)"/>
</clipPath>
<clipPath id="clip1_2376_22">
<rect width="23" height="21" fill="white"/>
</clipPath>
</defs>
</svg>
