<svg width="116" height="131" viewBox="0 0 116 131" fill="none" xmlns="http://www.w3.org/2000/svg">
<g clip-path="url(#clip0_2376_23)">
<path opacity="0.0946098" d="M100.478 58.8863L95.2587 56.3455C94.9408 56.1879 94.5501 56.217 94.2478 56.4173L89.397 59.6731C89.0948 59.8734 88.93 60.2215 88.9457 60.5794L89.3146 66.376C89.3366 66.7424 89.5562 67.053 89.8741 67.2106L95.0938 69.7513C95.4117 69.909 95.8024 69.8799 96.1047 69.6796L100.955 66.4237C101.258 66.2234 101.422 65.8754 101.407 65.5174L101.038 59.7209C101.022 59.3629 100.811 59.046 100.478 58.8863Z" fill="url(#paint0_linear_2376_23)"/>
</g>
<g clip-path="url(#clip1_2376_23)">
<path opacity="0.0946098" d="M103.359 15.6449L86.6467 7.50979C85.6289 7.00506 84.3777 7.09812 83.41 7.73948L67.8784 18.1642C66.9107 18.8056 66.3831 19.92 66.4332 21.0661L67.6144 39.6259C67.6848 40.7991 68.3881 41.7934 69.4059 42.2981L86.1186 50.4332C87.1364 50.9379 88.3876 50.8449 89.3553 50.2035L104.887 39.7788C105.855 39.1374 106.382 38.023 106.332 36.8769L105.151 18.3171C105.101 17.171 104.425 16.1562 103.359 15.6449Z" fill="url(#paint1_linear_2376_23)"/>
</g>
<g clip-path="url(#clip2_2376_23)">
<path opacity="0.0946098" d="M78.8775 58.6178L50.4424 44.7768C48.7108 43.918 46.582 44.0764 44.9356 45.1676L18.5103 62.9042C16.8638 63.9954 15.9661 65.8915 16.0513 67.8414L18.0611 99.419C18.1808 101.415 19.3773 103.107 21.109 103.965L49.5441 117.806C51.2757 118.665 53.4045 118.507 55.0509 117.416L81.4762 99.6791C83.1227 98.5878 84.0204 96.6917 83.9352 94.7418L81.9254 63.1642C81.8402 61.2143 80.6901 59.4877 78.8775 58.6178Z" fill="url(#paint2_linear_2376_23)"/>
</g>
<defs>
<linearGradient id="paint0_linear_2376_23" x1="89.0555" y1="60.0661" x2="101.27" y2="66.1122" gradientUnits="userSpaceOnUse">
<stop stop-color="#D4145A"/>
<stop offset="0.489583" stop-color="#832275"/>
<stop offset="1" stop-color="#2E3192"/>
</linearGradient>
<linearGradient id="paint1_linear_2376_23" x1="66.785" y1="19.4226" x2="105.894" y2="38.7811" gradientUnits="userSpaceOnUse">
<stop stop-color="#D4145A"/>
<stop offset="0.489583" stop-color="#832275"/>
<stop offset="1" stop-color="#2E3192"/>
</linearGradient>
<linearGradient id="paint2_linear_2376_23" x1="16.6499" y1="65.0452" x2="83.1906" y2="97.9816" gradientUnits="userSpaceOnUse">
<stop stop-color="#D4145A"/>
<stop offset="0.489583" stop-color="#832275"/>
<stop offset="1" stop-color="#2E3192"/>
</linearGradient>
<clipPath id="clip0_2376_23">
<rect width="13.7017" height="12.3465" fill="white" transform="translate(86 62.2219) rotate(-36.8746)"/>
</clipPath>
<clipPath id="clip1_2376_23">
<rect width="43.8708" height="39.5319" fill="white" transform="translate(57 26.3253) rotate(-36.8746)"/>
</clipPath>
<clipPath id="clip2_2376_23">
<rect width="74.6415" height="67.2594" fill="white" transform="translate(0 76.7899) rotate(-36.8746)"/>
</clipPath>
</defs>
</svg>
