<svg width="188" height="291" viewBox="0 0 188 291" fill="none" xmlns="http://www.w3.org/2000/svg">
<path opacity="0.0946098" d="M188 226.735V185.404C188 182.837 186.64 180.47 184.427 179.195L148.772 158.53C146.56 157.256 143.839 157.256 141.627 158.53L105.972 179.195C103.759 180.47 102.399 182.855 102.399 185.404V226.735C102.399 229.302 103.759 231.669 105.972 232.943L141.627 253.609C143.839 254.883 146.56 254.883 148.772 253.609L184.427 232.943C186.622 231.669 188 229.284 188 226.735Z" fill="url(#paint0_linear_132_96)"/>
<path opacity="0.0946098" d="M82.283 257.922V277.488C82.283 278.706 82.9333 279.815 83.9631 280.434L100.8 290.216C101.848 290.817 103.131 290.817 104.178 290.216L121.015 280.434C122.063 279.833 122.696 278.706 122.696 277.488V257.922C122.696 256.704 122.045 255.594 121.015 254.976L104.178 245.193C103.131 244.593 101.848 244.593 100.8 245.193L83.9631 254.976C82.9333 255.576 82.283 256.704 82.283 257.922Z" fill="url(#paint1_linear_132_96)"/>
<path opacity="0.0946098" d="M132.713 142.244V57.2471C132.713 51.9813 129.899 47.0969 125.342 44.464L51.737 1.97466C47.1617 -0.658222 41.5333 -0.658222 36.9761 1.97466L-36.6286 44.464C-41.1858 47.115 -44 51.9813 -44 57.2471V142.244C-44 147.51 -41.1858 152.394 -36.6286 155.027L36.9761 197.516C41.5333 200.149 47.1617 200.149 51.737 197.516L125.342 155.027C129.899 152.394 132.713 147.51 132.713 142.244Z" fill="url(#paint2_linear_132_96)"/>
<defs>
<linearGradient id="paint0_linear_132_96" x1="145.182" y1="157.542" x2="145.182" y2="254.573" gradientUnits="userSpaceOnUse">
<stop stop-color="#D4145A"/>
<stop offset="1" stop-color="#2E3192"/>
</linearGradient>
<linearGradient id="paint1_linear_132_96" x1="102.495" y1="290.666" x2="102.495" y2="244.736" gradientUnits="userSpaceOnUse">
<stop stop-color="#D4145A"/>
<stop offset="1" stop-color="#2E3192"/>
</linearGradient>
<linearGradient id="paint2_linear_132_96" x1="44.3529" y1="0.00230605" x2="44.3529" y2="199.498" gradientUnits="userSpaceOnUse">
<stop stop-color="#D4145A"/>
<stop offset="1" stop-color="#2E3192"/>
</linearGradient>
</defs>
</svg>
