<svg width="203" height="291" viewBox="0 0 203 291" fill="none" xmlns="http://www.w3.org/2000/svg">
<path opacity="0.0946098" d="M232 226.735V185.404C232 182.837 230.64 180.47 228.427 179.195L192.772 158.53C190.56 157.256 187.839 157.256 185.627 158.53L149.972 179.195C147.759 180.47 146.399 182.855 146.399 185.404V226.735C146.399 229.302 147.759 231.669 149.972 232.943L185.627 253.609C187.839 254.883 190.56 254.883 192.772 253.609L228.427 232.943C230.622 231.669 232 229.284 232 226.735Z" fill="url(#paint0_linear_132_259)"/>
<path opacity="0.0946098" d="M126.283 257.922V277.488C126.283 278.706 126.933 279.815 127.963 280.434L144.8 290.216C145.848 290.817 147.131 290.817 148.178 290.216L165.015 280.434C166.063 279.833 166.696 278.706 166.696 277.488V257.922C166.696 256.704 166.045 255.594 165.015 254.976L148.178 245.193C147.131 244.593 145.848 244.593 144.8 245.193L127.963 254.976C126.933 255.576 126.283 256.704 126.283 257.922Z" fill="url(#paint1_linear_132_259)"/>
<path opacity="0.0946098" d="M176.713 142.244V57.2471C176.713 51.9813 173.899 47.0969 169.342 44.464L95.737 1.97466C91.1617 -0.658222 85.5333 -0.658222 80.9761 1.97466L7.37137 44.464C2.81419 47.115 0 51.9813 0 57.2471V142.244C0 147.51 2.81419 152.394 7.37137 155.027L80.9761 197.516C85.5333 200.149 91.1617 200.149 95.737 197.516L169.342 155.027C173.899 152.394 176.713 147.51 176.713 142.244Z" fill="url(#paint2_linear_132_259)"/>
<defs>
<linearGradient id="paint0_linear_132_259" x1="189.182" y1="157.542" x2="189.182" y2="254.573" gradientUnits="userSpaceOnUse">
<stop stop-color="#D4145A"/>
<stop offset="1" stop-color="#2E3192"/>
</linearGradient>
<linearGradient id="paint1_linear_132_259" x1="146.495" y1="290.666" x2="146.495" y2="244.736" gradientUnits="userSpaceOnUse">
<stop stop-color="#D4145A"/>
<stop offset="1" stop-color="#2E3192"/>
</linearGradient>
<linearGradient id="paint2_linear_132_259" x1="88.3529" y1="0.00230605" x2="88.3529" y2="199.498" gradientUnits="userSpaceOnUse">
<stop stop-color="#D4145A"/>
<stop offset="1" stop-color="#2E3192"/>
</linearGradient>
</defs>
</svg>
